@startuml
allow_mixing

'-----------
'Issuer components
folder midp [ 
    Mock Identity Service Provider 
]

folder meis [
    Mock email Identity Service
]

node "Identity Provider Interface" as IPI #LightGreen

class "Issuer Controller Frontend" as ICF #LightGreen {
    {field} Browser Language (en-ca, fr-ca, juridictionDefault)
    void buttonDigitalProof(language)
    void buttonTryVerifierDemo()
}

note left of ICF #LightGreen 
    This demo shows how the different health juridiction 
    can issue to a person a digital proof of vaccination
    either online or by a one time password email 
end note

class "Issuer Controller Backend" as ICB #LightGreen {
    interface DataInterface
    string language
    object[] schema_En-Ca
    object[] schema_Fr-Ca
    {method} schemaSelector(language)
}

object "Issuer Agent en-ca" as IAen #LightBlue {
    string DID : juridictionPublicDID
    string Label : Canada Proof of Vaccination
}

object "Issuer Agent fr-ca" as IAfr #LightBlue {
    string DID : juridictionPublicDID
    string Label : Preuve de Vaccination Canadienne
}

database "KMS Issuer" as KMSIssuer #LightBlue

interface "Immunization API" as IMAPI #LightGreen

database "Mock Vaccinations" as vaccinData

folder wallet [
    Mobile Wallet
]

'-----------
'Verifier components
node landingPage #Pink [
    Verifier Travel Vaccination Proof Demo 
    ---
    Button 1 : Try Online Booking Demo
    Button 2 : Try On Location Demo
]

note right of landingPage #Pink 
    This demo shows how an institution can verify a 
    digital vaccination proof of a person 
    either online or face-2-Face 
end note

node "Online Booking Demo" as bookDemo #Pink
node "On Location Demo" as locationDemo #Pink
node "Verifier Agent" as verifierAgent #Pink
database "KMS Verifier" as KMSVerifier #Pink


'-----------
'Issuer Flow
midp --> IPI
meis --> IPI

IPI --> ICF
ICF --> ICB
ICB -left-> IMAPI
IMAPI -down-> vaccinData

ICB --> IAen
ICB --> IAfr

IAen --> KMSIssuer
IAfr --> KMSIssuer
IAen --> wallet
IAfr --> wallet

'-----------
'Verifier Flow
ICF -right-> landingPage
landingPage -down-> bookDemo
landingPage -down-> locationDemo
bookDemo -down-> verifierAgent
locationDemo -down-> verifierAgent
verifierAgent -down-> KMSVerifier

@enduml